<svg width="16" height="16" viewBox="0 0 1 1" version="1.1" xmlns="http://www.w3.org/2000/svg" xmlns:xlink="http://www.w3.org/1999/xlink" xml:space="preserve" xmlns:serif="http://www.serif.com/" style="fill-rule:evenodd;clip-rule:evenodd;stroke-linejoin:round;stroke-miterlimit:2;"><g><g><path d="M0.167,0.605l-0.063,0c-0.007,0 -0.012,0.006 -0.012,0.012l0,0.086c0,0.007 0.006,0.012 0.012,0.012l0.063,0c0.007,0 0.012,-0.006 0.012,-0.012l0,-0.086c0,-0.007 -0.006,-0.012 -0.012,-0.012Zm-0.012,0.025l0,0.008l-0.038,0l0,-0.008l0.038,0Zm-0.038,0.062l0,-0.029l0.038,0l0,0.029l-0.038,0Z" style="fill-rule:nonzero;"/><path d="M0.236,0.716l0.063,0c0.007,0 0.012,-0.006 0.012,-0.012l0,-0.086c0,-0.007 -0.006,-0.012 -0.012,-0.012l-0.063,0c-0.007,0 -0.012,0.006 -0.012,0.012l0,0.086c0,0.007 0.006,0.012 0.012,0.012Zm0.012,-0.025l0,-0.029l0.038,0l0,0.029l-0.038,0Zm0.038,-0.062l0,0.008l-0.038,0l0,-0.008l0.038,0Z" style="fill-rule:nonzero;"/><path d="M0.167,0.738l-0.063,0c-0.007,0 -0.012,0.006 -0.012,0.012l0,0.086c0,0.007 0.006,0.012 0.012,0.012l0.063,0c0.007,0 0.012,-0.006 0.012,-0.012l0,-0.086c0,-0.007 -0.006,-0.012 -0.012,-0.012Zm-0.012,0.025l0,0.008l-0.038,0l0,-0.008l0.038,0Zm-0.038,0.062l0,-0.029l0.038,0l0,0.029l-0.038,0Z" style="fill-rule:nonzero;"/><path d="M0.466,0.646l-0.063,0c-0.007,0 -0.012,0.006 -0.012,0.012l0,0.086c0,0.007 0.006,0.012 0.012,0.012l0.063,0c0.007,0 0.012,-0.006 0.012,-0.012l0,-0.086c0,-0.007 -0.006,-0.012 -0.012,-0.012Zm-0.012,0.025l0,0.008l-0.038,0l0,-0.008l0.038,0Zm-0.038,0.062l0,-0.029l0.038,0l0,0.029l-0.038,0Z" style="fill-rule:nonzero;"/><path d="M0.597,0.646l-0.063,0c-0.007,0 -0.012,0.006 -0.012,0.012l0,0.086c0,0.007 0.006,0.012 0.012,0.012l0.063,0c0.007,0 0.012,-0.006 0.012,-0.012l0,-0.086c0,-0.007 -0.006,-0.012 -0.012,-0.012Zm-0.012,0.025l0,0.008l-0.038,0l0,-0.008l0.038,0Zm-0.038,0.062l0,-0.029l0.038,0l0,0.029l-0.038,0Z" style="fill-rule:nonzero;"/><path d="M0.466,0.779l-0.063,0c-0.007,0 -0.012,0.006 -0.012,0.012l0,0.086c0,0.007 0.006,0.012 0.012,0.012l0.063,0c0.007,0 0.012,-0.006 0.012,-0.012l0,-0.086c0,-0.007 -0.006,-0.012 -0.012,-0.012Zm-0.012,0.025l0,0.008l-0.038,0l0,-0.008l0.038,0Zm-0.038,0.062l0,-0.029l0.038,0l0,0.029l-0.038,0Z" style="fill-rule:nonzero;"/><path d="M0.701,0.798l0.063,0c0.007,0 0.012,-0.006 0.012,-0.012l0,-0.086c0,-0.007 -0.006,-0.012 -0.012,-0.012l-0.063,0c-0.007,0 -0.012,0.006 -0.012,0.012l0,0.086c0,0.007 0.006,0.012 0.012,0.012Zm0.012,-0.025l0,-0.029l0.038,0l0,0.029l-0.038,0Zm0.038,-0.062l0,0.008l-0.038,0l0,-0.008l0.038,0Z" style="fill-rule:nonzero;"/><path d="M0.833,0.798l0.063,0c0.007,0 0.012,-0.006 0.012,-0.012l0,-0.086c0,-0.007 -0.006,-0.012 -0.012,-0.012l-0.063,0c-0.007,0 -0.012,0.006 -0.012,0.012l0,0.086c0,0.007 0.006,0.012 0.012,0.012Zm0.012,-0.025l0,-0.029l0.038,0l0,0.029l-0.038,0Zm0.038,-0.062l0,0.008l-0.038,0l0,-0.008l0.038,0Z" style="fill-rule:nonzero;"/><path d="M0.701,0.931l0.063,0c0.007,0 0.012,-0.006 0.012,-0.012l0,-0.086c0,-0.007 -0.006,-0.012 -0.012,-0.012l-0.063,0c-0.007,0 -0.012,0.006 -0.012,0.012l0,0.086c0,0.007 0.006,0.012 0.012,0.012Zm0.012,-0.025l0,-0.029l0.038,0l0,0.029l-0.038,0Zm0.038,-0.062l0,0.008l-0.038,0l0,-0.008l0.038,0Z" style="fill-rule:nonzero;"/><path d="M0.989,0.975l-0.022,-0.003l0,-0.305l0.016,0c0.007,0 0.012,-0.006 0.012,-0.012l0,-0.133c0,-0.007 -0.006,-0.012 -0.012,-0.012l-0.286,0l0,-0.029c0,-0.007 -0.006,-0.012 -0.012,-0.012l-0.286,0l0,-0.029c0,-0.007 -0.006,-0.012 -0.012,-0.012l-0.37,0c-0.007,0 -0.012,0.006 -0.012,0.012l0,0.133c0,0.007 0.006,0.012 0.012,0.012l0.016,0l0,0.262l-0.019,-0.002c-0.007,-0.001 -0.013,0.004 -0.014,0.011c-0.001,0.007 0.004,0.013 0.011,0.014l0.975,0.131c0.001,0 0.001,0 0.002,0c0.006,0 0.011,-0.004 0.012,-0.011c0.001,-0.007 -0.004,-0.013 -0.011,-0.014Zm-0.047,-0.006l-0.013,-0.002l0,-0.025c0,-0.007 -0.006,-0.012 -0.012,-0.012l-0.009,0l0,-0.097c0,-0.007 -0.006,-0.012 -0.012,-0.012l-0.063,0c-0.007,0 -0.012,0.006 -0.012,0.012l0,0.097l-0.009,0c-0.007,0 -0.012,0.006 -0.012,0.012l0,0.007l-0.13,-0.017l0,-0.265l0.274,0l0,0.302l0,0Zm-0.06,-0.039l-0.038,0l0,-0.085l0.038,0l0,0.085Zm0.022,0.025l0,0.009l-0.069,-0.009l0.069,0Zm-0.32,-0.066l-0.038,0l0,-0.085l0.038,0l0,0.085Zm0.022,0.025l0,0.011l-0.079,-0.011l0.079,0Zm0.012,-0.025l-0.009,0l0,-0.097c0,-0.007 -0.006,-0.012 -0.012,-0.012l-0.063,0c-0.007,0 -0.012,0.006 -0.012,0.012l0,0.097l-0.009,0c-0.007,0 -0.012,0.006 -0.012,0.012l0,0.009l-0.13,-0.017l0,-0.267l0.274,0l0,0.303l-0.013,-0.002l0,-0.026c0,-0.007 -0.006,-0.012 -0.012,-0.012Zm0.079,-0.275l0,-0.079l0.274,0l0,0.108l-0.302,0l0,-0.017l0.016,0c0.007,0 0.012,-0.006 0.012,-0.012Zm-0.298,-0.041l0,-0.08l0.274,0l0,0.108l-0.302,0l0,-0.016l0.016,0c0.007,0 0.012,-0.006 0.012,-0.012Zm-0.37,-0.121l0.346,0l0,0.108l-0.329,0c-0,0 -0,-0 -0,-0c-0,0 -0,0 -0,0l-0.016,0l0,-0.108Zm0.028,0.133l0.289,0l0,0.304l-0.013,-0.002l0,-0.027c0,-0.007 -0.006,-0.012 -0.012,-0.012l-0.009,0l0,-0.097c0,-0.007 -0.006,-0.012 -0.012,-0.012l-0.063,0c-0.007,0 -0.012,0.006 -0.012,0.012l0,0.097l-0.009,0c-0.007,0 -0.012,0.006 -0.012,0.012l0,0.01l-0.145,-0.019l0,-0.266Zm0.229,0.263l-0.038,0l0,-0.085l0.038,0l0,0.085Zm-0.06,0.025l0.081,0l0,0.012l-0.081,-0.011l0,-0.001Z" style="fill-rule:nonzero;"/></g></g></svg>