<?xml version="1.0" ?><!-- Uploaded to: SVG Repo, www.svgrepo.com, Generator: SVG Repo Mixer Tools -->
<svg fill="#000000" width="800px" height="800px" viewBox="0 0 100 100" data-name="Layer 1" id="Layer_1" xmlns="http://www.w3.org/2000/svg"><title/><path d="M42.06,69a1.84,1.84,0,0,0,.33,0c11.33-2.07,17.07-9.45,17.07-22,0-16.2-10.32-40.23-24.58-40.23S10.31,30.8,10.31,47c0,12.45,5.69,19.83,16.93,21.93a1.82,1.82,0,1,0,.66-3.58C18.38,63.57,14,57.74,14,47a54.5,54.5,0,0,1,6.44-24.46c4.2-7.71,9.48-12.13,14.49-12.13s10.29,4.42,14.49,12.13A54.38,54.38,0,0,1,55.82,47c0,10.78-4.48,16.62-14.08,18.37A1.82,1.82,0,0,0,42.06,69Z"/><path d="M34.88,93.23a1.81,1.81,0,0,0,1.82-1.82V64.11c0-.3.07-7.28,6.37-7.28a1.82,1.82,0,0,0,0-3.64,9.33,9.33,0,0,0-6.37,2.22V45c0-.29.07-7.28,6.37-7.28a1.82,1.82,0,1,0,0-3.64,9.05,9.05,0,0,0-8.19,4.4,9,9,0,0,0-8.19-4.4,1.82,1.82,0,1,0,0,3.64c6.14,0,6.37,6.54,6.37,7.29V55.41a9.33,9.33,0,0,0-6.37-2.22,1.82,1.82,0,0,0,0,3.64c6.14,0,6.37,6.53,6.37,7.28v27.3A1.82,1.82,0,0,0,34.88,93.23Z"/><path d="M79.47,78.36a2.2,2.2,0,0,0,.44,0c6.49-1.6,9.78-6.22,9.78-13.74a35.47,35.47,0,0,0-4.25-16.18c-3.11-5.71-7.13-8.86-11.32-8.86-9.36,0-15.57,15.07-15.57,25,0,7.43,3.21,12,9.55,13.68A1.82,1.82,0,0,0,69,74.73c-4.66-1.22-6.83-4.44-6.83-10.16,0-9.34,5.78-21.4,11.93-21.4s11.93,12.06,11.93,21.4c0,5.78-2.23,9-7,10.2a1.82,1.82,0,0,0,.43,3.59Z"/><path d="M74,93.23a1.81,1.81,0,0,0,1.82-1.82V75.48a1.78,1.78,0,0,0,.09-.47s0-.06,0-.09c0-.62.19-3.69,3.13-3.69a1.82,1.82,0,1,0,0-3.64,6.54,6.54,0,0,0-3.23.78V63.93a1.86,1.86,0,0,0,.09-.47s0-.06,0-.09c0-.62.19-3.69,3.13-3.69a1.82,1.82,0,1,0,0-3.64,6.19,6.19,0,0,0-4.95,2.19,6.19,6.19,0,0,0-5-2.19,1.82,1.82,0,0,0,0,3.64,3,3,0,0,1,3,2.75v5.83a6.71,6.71,0,0,0-3-.67,1.82,1.82,0,1,0,0,3.64,3,3,0,0,1,3,2.75V91.41A1.81,1.81,0,0,0,74,93.23Z"/></svg>