<?xml version="1.0" ?>
<!DOCTYPE svg  PUBLIC '-//W3C//DTD SVG 1.1//EN'  'http://www.w3.org/Graphics/SVG/1.1/DTD/svg11.dtd'>
<!-- Uploaded to: SVG Repo, www.svgrepo.com, Generator: SVG Repo Mixer Tools -->
<svg fill="#000000" width="800px" height="800px" viewBox="0 0 512 512" enable-background="new 0 0 512 512" id="Layer_1" version="1.1" xml:space="preserve" xmlns="http://www.w3.org/2000/svg" xmlns:xlink="http://www.w3.org/1999/xlink">
<g>
<g>
<path d="M164.667,305.592h-0.333c-5.523,0-10-4.477-10-10s4.477-10,10-10h0.333c5.523,0,10,4.477,10,10    S170.189,305.592,164.667,305.592z"/>
</g>
<g>
<path d="M339.833,305.592H339.5c-5.523,0-10-4.477-10-10s4.477-10,10-10h0.333c5.523,0,10,4.477,10,10    S345.356,305.592,339.833,305.592z"/>
</g>
<g>
<path d="M392.5,356.092h-273c-12.131,0-22-9.869-22-22v-77c0-12.131,9.869-22,22-22h273c12.131,0,22,9.869,22,22v77    C414.5,346.223,404.631,356.092,392.5,356.092z M119.5,255.092c-1.103,0-2,0.897-2,2v77c0,1.103,0.897,2,2,2h273    c1.103,0,2-0.897,2-2v-77c0-1.103-0.897-2-2-2H119.5z"/>
</g>
<g>
<path d="M313.5,356.092h-115c-5.523,0-10-4.477-10-10v-101c0-5.523,4.477-10,10-10h115c5.523,0,10,4.477,10,10v101    C323.5,351.615,319.023,356.092,313.5,356.092z M208.5,336.092h95v-81h-95V336.092z"/>
</g>
<g>
<path d="M272,305.592h-32c-5.523,0-10-4.477-10-10s4.477-10,10-10h32c5.523,0,10,4.477,10,10S277.523,305.592,272,305.592z"/>
</g>
<g>
<path d="M119.5,380.092c-5.523,0-10-4.477-10-10v-24c0-5.523,4.477-10,10-10s10,4.477,10,10v24    C129.5,375.615,125.023,380.092,119.5,380.092z"/>
</g>
<g>
<path d="M394.5,380.092c-5.523,0-10-4.477-10-10v-24c0-5.523,4.477-10,10-10s10,4.477,10,10v24    C404.5,375.615,400.023,380.092,394.5,380.092z"/>
</g>
<g>
<path d="M319.5,232.092h-132c-5.523,0-10-4.477-10-10v-80.184c0-5.523,4.477-10,10-10h132c5.523,0,10,4.477,10,10v80.184    C329.5,227.615,325.023,232.092,319.5,232.092z M197.5,212.092h112v-60.184h-112V212.092z"/>
</g>
<g>
<path d="M281.52,255.092c-0.007,0-0.014,0-0.02,0H224c-3.305,0-6.396-1.633-8.26-4.363c-1.863-2.729-2.257-6.204-1.053-9.281l9-23    c1.5-3.833,5.196-6.356,9.313-6.356h40.5c4.256,0,8.046,2.694,9.445,6.715l7.787,22.388c0.507,1.198,0.788,2.515,0.788,3.897    C291.52,250.615,287.043,255.092,281.52,255.092z M238.651,235.092h28.783l-1.043-3h-26.565L238.651,235.092z"/>
</g>
</g>
</svg>