<svg width="1rem" height="1rem" viewBox="0 0 1 1" version="1.1" xmlns="http://www.w3.org/2000/svg" xmlns:xlink="http://www.w3.org/1999/xlink" xml:space="preserve" xmlns:serif="http://www.serif.com/" style="fill-rule:evenodd;clip-rule:evenodd;stroke-linecap:round;stroke-linejoin:round;"><g><path d="M0.25,0.601l0.5,0m-0.5,0l0,-0.12c0,-0.028 0,-0.042 0.005,-0.053c0.005,-0.009 0.012,-0.017 0.022,-0.022c0.011,-0.005 0.025,-0.005 0.053,-0.005l0.34,0c0.028,0 0.042,0 0.053,0.005c0.009,0.005 0.017,0.012 0.022,0.022c0.005,0.011 0.005,0.025 0.005,0.053l0,0.12m-0.5,0l0,0.35m0.5,-0.35l0,0.35m0.067,-0.741l-0.21,-0.105c-0.039,-0.02 -0.059,-0.03 -0.08,-0.033c-0.018,-0.003 -0.037,-0.003 -0.055,0c-0.021,0.004 -0.04,0.014 -0.08,0.033l-0.21,0.105c-0.048,0.024 -0.072,0.036 -0.09,0.054c-0.016,0.016 -0.027,0.035 -0.035,0.056c-0.008,0.024 -0.008,0.051 -0.008,0.105l0,0.447c0,0.028 0,0.042 0.005,0.053c0.005,0.009 0.012,0.017 0.022,0.022c0.011,0.005 0.025,0.005 0.053,0.005l0.74,0c0.028,0 0.042,0 0.053,-0.005c0.009,-0.005 0.017,-0.012 0.022,-0.022c0.005,-0.011 0.005,-0.025 0.005,-0.053l0,-0.447c0,-0.054 0,-0.081 -0.008,-0.105c-0.007,-0.021 -0.019,-0.04 -0.035,-0.056c-0.018,-0.018 -0.042,-0.03 -0.09,-0.054Z" style="fill:none;fill-rule:nonzero;stroke:currentColor;stroke-width:0.05px;"/></g></svg>